<svg width="26" height="26" viewBox="0 0 26 26" fill="none" xmlns="http://www.w3.org/2000/svg">
<path fill-rule="evenodd" clip-rule="evenodd" d="M0 13C0 20.1797 5.8203 26 13 26C20.1797 26 26 20.1797 26 13C26 5.8203 20.1797 0 13 0C5.8203 0 0 5.8203 0 13ZM21.1587 12.5025C21.157 16.7636 17.6906 20.2309 13.4285 20.2326H13.4253C12.1316 20.2322 10.8603 19.9076 9.73127 19.2917L5.63337 20.3667L6.73003 16.361C6.05356 15.1886 5.6976 13.8588 5.69818 12.4964C5.69987 8.23424 9.16764 4.76666 13.4285 4.76666C15.4964 4.76755 17.4373 5.57259 18.8967 7.03376C20.3562 8.49485 21.1595 10.437 21.1587 12.5025Z" fill="white"/>
<path fill-rule="evenodd" clip-rule="evenodd" d="M7.48946 18.5301L9.92121 17.8922L10.1558 18.0315C11.1423 18.6169 12.2731 18.9266 13.426 18.927H13.4286C16.9699 18.927 19.8522 16.0447 19.8536 12.502C19.8542 10.7852 19.1866 9.17095 17.9735 7.95648C16.7605 6.74201 15.1473 6.07286 13.4311 6.07227C9.88712 6.07227 7.00482 8.9543 7.00342 12.4968C7.00292 13.7108 7.34261 14.8931 7.98576 15.9161L8.13853 16.1592L7.48946 18.5301ZM17.0585 14.1667C17.1932 14.2318 17.2842 14.2758 17.323 14.3406C17.3713 14.4212 17.3713 14.8079 17.2104 15.2591C17.0494 15.7103 16.2777 16.1221 15.9066 16.1775C15.5738 16.2273 15.1527 16.248 14.69 16.101C14.4095 16.012 14.0498 15.8931 13.5889 15.6941C11.7782 14.9122 10.5545 13.1572 10.3232 12.8255C10.307 12.8023 10.2957 12.786 10.2893 12.7776L10.2878 12.7755C10.1856 12.6391 9.50065 11.7253 9.50065 10.7795C9.50065 9.88981 9.93769 9.42347 10.1389 9.20882C10.1526 9.19411 10.1653 9.18058 10.1767 9.16818C10.3537 8.97481 10.563 8.92647 10.6917 8.92647C10.8205 8.92647 10.9494 8.92766 11.0619 8.93331C11.0758 8.93401 11.0903 8.93392 11.1052 8.93383C11.2177 8.93317 11.3581 8.93235 11.4965 9.26487C11.5498 9.39284 11.6277 9.58257 11.7099 9.78266C11.8761 10.1873 12.0597 10.6344 12.092 10.699C12.1403 10.7957 12.1725 10.9085 12.1081 11.0375C12.0985 11.0568 12.0895 11.075 12.081 11.0925C12.0326 11.1912 11.9971 11.2638 11.915 11.3596C11.8827 11.3973 11.8494 11.4379 11.816 11.4786C11.7496 11.5595 11.6831 11.6404 11.6253 11.698C11.5286 11.7944 11.4279 11.8989 11.5406 12.0922C11.6532 12.2856 12.0409 12.9181 12.6151 13.4303C13.2323 13.9808 13.7688 14.2135 14.0407 14.3315C14.0938 14.3545 14.1368 14.3732 14.1684 14.389C14.3615 14.4857 14.4741 14.4695 14.5868 14.3406C14.6995 14.2117 15.0697 13.7766 15.1984 13.5833C15.3271 13.39 15.456 13.4222 15.633 13.4866C15.8101 13.5511 16.7597 14.0183 16.9528 14.115C16.9905 14.1339 17.0258 14.1509 17.0585 14.1667Z" fill="white"/>
</svg>
